<svg width="23" height="17" viewBox="0 0 23 17" fill="none" xmlns="http://www.w3.org/2000/svg">
<path fill-rule="evenodd" clip-rule="evenodd" d="M2.19824 0.453369L14.5029 0.443604L14.8936 0.580322C15.1084 0.653565 15.3965 0.795166 15.5283 0.883057C15.665 0.97583 15.875 1.16138 16.0068 1.2981C16.1338 1.42993 16.2998 1.66431 16.3779 1.81079C16.4561 1.95728 16.5586 2.21118 16.6074 2.37231C16.6611 2.56763 16.7002 2.92896 16.749 4.20337L18.5459 3.00708C19.9229 2.08911 20.4014 1.79126 20.6211 1.73267C20.8066 1.67896 21.0117 1.65942 21.2412 1.67407C21.4756 1.68872 21.6807 1.74243 21.8955 1.84009C22.1055 1.93774 22.291 2.06958 22.457 2.25024C22.6084 2.41138 22.7598 2.63599 22.9502 3.10474V13.4075L22.8281 13.7004C22.7598 13.8762 22.6084 14.1008 22.457 14.262C22.291 14.4426 22.1055 14.5745 21.8955 14.6721C21.6807 14.7698 21.4756 14.8235 21.2412 14.8381C21.0117 14.8528 20.8066 14.8333 20.6211 14.7795C20.4014 14.7209 19.9229 14.4231 16.749 12.3088L16.7197 13.0803C16.7002 13.5833 16.6611 13.9446 16.6074 14.1399C16.5586 14.301 16.4561 14.5549 16.3779 14.7014C16.2998 14.8479 16.1289 15.0872 15.9922 15.2288C15.8604 15.3655 15.6309 15.5559 15.4893 15.6487C15.3525 15.7366 15.0693 15.8684 14.5029 16.0686H8.375C2.34961 16.0686 2.24219 16.0637 1.9541 15.9661C1.79297 15.9124 1.53418 15.8 1.37305 15.7122C1.2168 15.6243 0.962891 15.4338 0.811523 15.2825C0.660156 15.1311 0.469727 14.8772 0.381836 14.7209C0.298828 14.5598 0.186523 14.301 0.137695 14.1399C0.0546875 13.8616 0.0498047 13.5442 0.0498047 8.2561C0.0498047 2.94849 0.0546875 2.65063 0.142578 2.37231C0.191406 2.21118 0.274414 1.99146 0.328125 1.88403C0.381836 1.77661 0.508789 1.5813 0.606445 1.45435C0.704102 1.32251 0.914062 1.11743 1.0752 0.995361C1.23633 0.873291 1.42188 0.751221 1.49023 0.721924C1.55859 0.69751 1.74414 0.624268 1.90527 0.560791L2.19824 0.453369ZM2.14941 2.8313V13.6858L2.4668 13.9739H14.2832L14.6006 13.6858V2.8313L14.2832 2.5481H2.4668L2.14941 2.8313ZM16.7295 6.71802V9.79419L20.875 12.553C20.875 5.89282 20.8701 3.95923 20.8652 3.96411C20.8555 3.96411 19.9229 4.58423 18.79 5.34106L16.7295 6.71802ZM5.24023 4.1106C6.29492 4.10571 6.55371 4.12036 6.70508 4.18384C6.80762 4.2229 6.93945 4.30591 7.00293 4.3645C7.06641 4.4231 7.16406 4.55981 7.21777 4.66724C7.28613 4.79907 7.3252 4.95532 7.3252 5.1311C7.3252 5.3313 7.29102 5.45825 7.20312 5.61938C7.13965 5.73657 6.98828 5.90259 6.66113 6.13208L5.35742 6.14673C4.53711 6.15649 3.99023 6.14673 3.87305 6.11255C3.77051 6.08325 3.61914 6.00024 3.53613 5.927C3.45312 5.85376 3.34082 5.70239 3.28223 5.59497C3.21875 5.46802 3.18457 5.30688 3.18457 5.1311C3.18457 4.95532 3.21875 4.79907 3.28711 4.66724C3.34082 4.55981 3.43848 4.4231 3.50195 4.3645C3.56543 4.30591 3.69238 4.22778 3.79004 4.18384C3.92676 4.12524 4.20508 4.1106 5.24023 4.1106Z" fill="#579BC3"/>
</svg>
