<svg width="22" height="21" viewBox="0 0 22 21" fill="none" xmlns="http://www.w3.org/2000/svg">
<path fill-rule="evenodd" clip-rule="evenodd" d="M10.8968 0.729598C13.9062 0.72491 14.825 0.738973 15.5093 0.795223C15.9828 0.83741 16.5546 0.898348 16.789 0.935848C17.0187 0.973348 17.3984 1.05772 17.6328 1.12335C17.8625 1.18897 18.2656 1.34366 18.5234 1.47491C18.7812 1.60147 19.1281 1.8171 19.2921 1.95303C19.4609 2.08897 19.7 2.32804 19.8218 2.48272C19.9484 2.63741 20.1546 2.97491 20.2812 3.23272C20.4125 3.49054 20.5671 3.8796 20.6281 4.09991C20.689 4.32022 20.7734 4.69991 20.8156 4.94366C20.8531 5.18741 20.9187 5.7921 20.9609 6.2796C21.0171 6.96866 21.0312 7.9671 21.0312 10.7327C21.0312 13.4749 21.0171 14.5062 20.9609 15.2093C20.9234 15.7108 20.8578 16.3249 20.8156 16.5687C20.7734 16.8124 20.689 17.1921 20.6281 17.4124C20.5671 17.6327 20.4125 18.0218 20.2812 18.2796C20.1546 18.5374 19.939 18.8843 19.8031 19.0483C19.6671 19.2171 19.4281 19.4562 19.2734 19.578C19.1187 19.7046 18.7812 19.9108 18.5234 20.0374C18.2656 20.1687 17.8765 20.3233 17.6562 20.3843C17.4359 20.4452 17.0562 20.5296 16.8125 20.5718C16.5687 20.6093 15.9781 20.6749 15.5 20.7171C14.8203 20.7733 13.85 20.7874 11 20.7874C8.14996 20.7874 7.17965 20.7733 6.49996 20.7171C6.02183 20.6749 5.43121 20.6093 5.18746 20.5718C4.94371 20.5296 4.56402 20.4452 4.34371 20.3843C4.1234 20.3233 3.73433 20.1687 3.47652 20.0374C3.21871 19.9108 2.88121 19.7046 2.72652 19.578C2.57183 19.4562 2.33277 19.2171 2.19683 19.0483C2.0609 18.8843 1.84527 18.5374 1.71871 18.2796C1.58746 18.0218 1.43277 17.6327 1.37183 17.4124C1.3109 17.1921 1.22652 16.8124 1.18433 16.5687C1.14215 16.3249 1.07652 15.7015 1.03433 15.1858C0.973396 14.3983 0.964021 13.6249 0.982771 10.3108C0.996833 7.91554 1.02496 6.19054 1.05777 5.9046C1.0859 5.64679 1.14215 5.22491 1.18433 4.9671C1.22652 4.70929 1.3109 4.32022 1.37183 4.09991C1.43277 3.8796 1.58746 3.49054 1.71871 3.23272C1.84527 2.97491 2.0609 2.62804 2.19683 2.46397C2.33277 2.29522 2.57183 2.05616 2.72652 1.93429C2.88121 1.80772 3.21871 1.60147 3.47652 1.47491C3.73433 1.34366 4.1234 1.18897 4.34371 1.12804C4.56402 1.0671 4.95308 0.982723 5.2109 0.940535C5.46871 0.89366 6.00777 0.832723 6.40621 0.79991C6.92652 0.753035 8.20621 0.734285 10.8921 0.729598H10.8968ZM5.59996 2.89991C5.35152 2.9421 4.98121 3.02647 4.77965 3.0921C4.58277 3.15304 4.32496 3.26554 4.20777 3.34054C4.09058 3.41554 3.9359 3.53741 3.8609 3.61241C3.7859 3.68741 3.66402 3.8421 3.58902 3.95929C3.51402 4.07647 3.40152 4.33429 3.34058 4.53585C3.27496 4.73272 3.19058 5.10304 3.1484 5.35616C3.1109 5.6046 3.05933 6.19054 3.0359 6.6546C3.01246 7.11866 2.98902 8.0046 2.98902 8.62335C2.98902 9.2421 3.00308 9.76241 3.02183 9.78116C3.04527 9.79991 3.21871 9.66397 3.4109 9.48116C3.60308 9.29835 3.94996 8.99366 4.18433 8.81085C4.41402 8.62335 4.77496 8.36085 4.98121 8.22491C5.18746 8.09366 5.50152 7.91085 5.68433 7.82647C5.86246 7.7421 6.1484 7.62491 6.31715 7.57335C6.4859 7.5171 6.75777 7.45147 6.92652 7.41866C7.10465 7.39054 7.43277 7.38116 7.7234 7.39522C7.99527 7.40929 8.35152 7.46554 8.52027 7.51241C8.68902 7.55929 8.9609 7.66241 9.12965 7.73272C9.2984 7.80772 9.61246 7.97647 9.83277 8.10303C10.0531 8.23428 10.4656 8.52022 10.7468 8.74054C11.0515 8.97491 11.8296 9.70147 12.6546 10.5218C13.9671 11.8202 14.0562 11.8999 14.1406 11.8343C14.1875 11.7968 14.4171 11.628 14.6421 11.4593C14.8718 11.2952 15.2468 11.0562 15.4812 10.9343C15.7109 10.8124 16.0484 10.6624 16.2312 10.6015C16.414 10.5405 16.7046 10.4608 16.8875 10.428C17.0984 10.3905 17.389 10.3765 17.7078 10.3952C17.9796 10.4093 18.3453 10.4655 18.5281 10.5171C18.7109 10.5687 18.8937 10.6202 18.9359 10.6343C19.0156 10.6624 19.0203 10.5687 19.0203 9.10616C19.0156 8.24835 18.9968 7.15616 18.9734 6.67804C18.95 6.19991 18.8984 5.60929 18.8609 5.36554C18.8234 5.12179 18.7437 4.77022 18.6875 4.5921C18.6312 4.41397 18.5515 4.18897 18.5046 4.09991C18.4578 4.01085 18.3546 3.85147 18.2703 3.74835C18.1906 3.64522 18.0031 3.48116 17.8578 3.38272C17.7125 3.28428 17.4265 3.15304 17.225 3.08741C17.0281 3.02647 16.6578 2.9421 16.4046 2.89991C16.1562 2.86241 15.5703 2.81085 15.1062 2.78741C14.6421 2.76397 12.7343 2.74522 10.864 2.74991C8.99371 2.74991 7.14683 2.76866 6.76246 2.7921C6.3734 2.81085 5.85308 2.85772 5.59996 2.89991ZM6.63121 9.59835C6.4484 9.68272 6.15777 9.84679 5.98902 9.95929C5.82027 10.0718 5.50621 10.3108 5.2859 10.489C5.06558 10.6718 4.4609 11.2437 3.9359 11.7593L2.98902 12.7015C2.98902 13.7187 3.01246 14.3937 3.0359 14.8577C3.05933 15.3218 3.1109 15.9077 3.1484 16.1562C3.19058 16.4093 3.27496 16.7796 3.34058 16.9765C3.40152 17.178 3.51402 17.4358 3.58902 17.553C3.66402 17.6702 3.7859 17.8249 3.8609 17.8999C3.9359 17.9749 4.09058 18.0968 4.20777 18.1718C4.32496 18.2468 4.58277 18.3593 4.77965 18.4202C4.98121 18.4858 5.35152 18.5702 5.59996 18.6124C5.85308 18.6499 6.43902 18.7015 6.90308 18.7249C7.36715 18.7483 9.21402 18.7671 11.0046 18.7671C12.7953 18.7671 14.6421 18.7483 15.1062 18.7249C15.5703 18.7015 16.1562 18.6499 16.4046 18.6124C16.6578 18.5702 17.0281 18.4858 17.225 18.4249C17.4265 18.3593 17.7125 18.228 17.8578 18.1296C18.0031 18.0312 18.1906 17.8671 18.2703 17.764C18.3546 17.6608 18.4578 17.5015 18.5046 17.4124C18.5515 17.3233 18.6312 17.103 18.6875 16.9202C18.7437 16.7374 18.8234 16.3905 18.8609 16.1468C18.8984 15.903 18.95 15.3124 18.9734 14.8343C18.9968 14.3562 19.0156 13.7421 19.0203 13.4608C19.0203 12.964 19.0203 12.9593 18.889 12.8702C18.8187 12.8233 18.6359 12.7202 18.4812 12.6405C18.3265 12.5655 18.1062 12.4765 17.989 12.4437C17.8718 12.4155 17.6421 12.3874 17.4734 12.3921C17.3 12.3921 17.0562 12.4296 16.9109 12.4812C16.7703 12.5327 16.5781 12.6077 16.489 12.6546C16.4 12.7015 16.189 12.8327 16.0203 12.9405C15.8515 13.053 15.664 13.189 15.5984 13.2405L15.4812 13.3296C16.5968 14.4546 16.8875 14.7827 16.9343 14.8905C16.9718 14.989 17.0046 15.153 17.0046 15.2562C17.0046 15.3593 16.9718 15.5233 16.9296 15.6171C16.8921 15.7155 16.8031 15.8562 16.7328 15.9265C16.6625 16.0015 16.5265 16.0999 16.4281 16.1515C16.325 16.203 16.1562 16.2405 16.0203 16.2405C15.889 16.2405 15.7062 16.2077 15.6078 16.1655C15.4859 16.1187 14.6375 15.2983 12.8093 13.4796C11.3656 12.0405 9.98277 10.6999 9.73902 10.4983C9.49527 10.2968 9.14371 10.0343 8.96558 9.9171C8.78277 9.79991 8.50621 9.64991 8.34214 9.57491C8.18277 9.5046 7.92965 9.4296 7.77496 9.40616C7.62496 9.38741 7.38121 9.38741 7.23589 9.40616C7.09058 9.4296 6.81871 9.51397 6.63121 9.59835ZM14.989 4.76085C15.1296 4.75616 15.35 4.78429 15.4812 4.8171C15.6078 4.8546 15.8281 4.94366 15.9687 5.01866C16.1046 5.09366 16.3203 5.25772 16.4421 5.38897C16.564 5.51554 16.7187 5.73585 16.7843 5.8671C16.8546 6.00304 16.9343 6.25616 16.9671 6.4296C17.0093 6.67804 17.0093 6.82335 16.9671 7.07647C16.939 7.2546 16.8546 7.52179 16.7843 7.66241C16.714 7.80304 16.55 8.02804 16.4187 8.15929C16.2828 8.29522 16.0484 8.46397 15.8562 8.55772C15.5421 8.70772 15.5093 8.7171 15.0125 8.7171C14.5062 8.7171 14.4828 8.71241 14.1406 8.54366C13.9156 8.43116 13.714 8.29054 13.5687 8.13585C13.4468 8.0046 13.2781 7.75616 13.1937 7.57804C13.0531 7.28272 13.0437 7.23585 13.0437 6.74835C13.0437 6.25147 13.0484 6.21866 13.2031 5.9046C13.2921 5.72179 13.4609 5.47803 13.5781 5.36085C13.6953 5.24366 13.8875 5.09366 14.0046 5.02335C14.1218 4.95772 14.3328 4.86866 14.4734 4.83116C14.614 4.79366 14.8484 4.76085 14.989 4.76085Z" fill="#579BC3"/>
</svg>
