<svg width="22" height="23" viewBox="0 0 22 23" fill="none" xmlns="http://www.w3.org/2000/svg">
<path fill-rule="evenodd" clip-rule="evenodd" d="M10.9531 0.979492C11.1219 0.979492 11.4359 1.00762 11.6562 1.04512C11.8765 1.0873 12.2 1.15762 12.3828 1.20449C12.5656 1.25605 12.8562 1.36387 13.039 1.44355C13.2219 1.52324 13.5359 1.70137 13.7422 1.8373C13.9578 1.98262 14.2859 2.26855 14.5156 2.50762C14.75 2.75605 15.0031 3.08418 15.125 3.2998C15.2422 3.50605 15.3828 3.7873 15.439 3.92793C15.4953 4.06855 15.5797 4.32168 15.6265 4.49043C15.7062 4.77168 15.7109 5.08574 15.7109 12.7639L15.5797 13.1857C15.5047 13.4154 15.3594 13.7764 15.2515 13.9826C15.139 14.1889 14.9562 14.4842 14.839 14.6389C14.7172 14.7936 14.4781 15.0561 14.3 15.2201C14.1219 15.3889 13.8406 15.6139 13.6719 15.7217C13.5031 15.8295 13.2219 15.9842 13.039 16.0686C12.8562 16.1482 12.5094 16.2748 12.2656 16.3404C11.8672 16.4529 11.7406 16.467 11.0234 16.467C10.3953 16.467 10.1515 16.4482 9.87498 16.3779C9.68279 16.3311 9.36404 16.2279 9.17185 16.1529C8.97967 16.0779 8.65623 15.9139 8.44998 15.7967C8.24842 15.6748 7.92498 15.4264 7.72342 15.2436C7.52654 15.0607 7.26404 14.7795 7.13748 14.6107C7.0156 14.4467 6.83279 14.1514 6.73435 13.9592C6.6406 13.767 6.51404 13.4717 6.46248 13.3029C6.40623 13.1342 6.3406 12.8717 6.31248 12.717C6.28435 12.5342 6.2656 11.1326 6.2656 8.75605C6.2656 6.37949 6.28435 4.97793 6.31248 4.79512C6.3406 4.64043 6.40623 4.37793 6.46248 4.20918C6.51404 4.04043 6.6406 3.74512 6.73435 3.55293C6.83279 3.36074 7.0156 3.06543 7.13748 2.90137C7.26404 2.73262 7.52654 2.45137 7.72342 2.26855C7.92498 2.08574 8.24842 1.8373 8.44998 1.71543C8.65623 1.59824 8.97967 1.43418 9.17185 1.35918C9.36404 1.28418 9.68279 1.18574 9.87498 1.14355C10.0672 1.10137 10.3203 1.0498 10.4375 1.02637C10.5547 1.00293 10.7844 0.98418 10.9531 0.979492ZM9.4156 2.89199C9.12029 3.04199 8.94217 3.17324 8.64217 3.47324C8.35623 3.75918 8.21092 3.94668 8.07967 4.20918C7.98592 4.40137 7.87342 4.6873 7.83592 4.84199C7.77498 5.08105 7.7656 5.66699 7.7656 8.75605C7.7656 11.8451 7.77498 12.4311 7.83592 12.6701C7.87342 12.8248 7.98592 13.1107 8.07967 13.3029C8.21092 13.5607 8.35623 13.7529 8.63279 14.0295C8.93748 14.3389 9.09217 14.4467 9.4531 14.6248C9.69685 14.7467 10.0531 14.8779 10.2359 14.9154C10.4234 14.9576 10.7703 14.9904 11 14.9904C11.2297 14.9904 11.5765 14.9576 11.7594 14.9154C11.9469 14.8779 12.2937 14.7514 12.5234 14.6389C12.7859 14.5076 13.0578 14.3295 13.2453 14.1607C13.414 14.0107 13.6437 13.7436 13.7656 13.5607C13.8828 13.3779 14.0328 13.0967 14.0937 12.9279L14.2109 12.6232C14.2344 5.64824 14.225 5.08574 14.164 4.84199C14.1265 4.6873 14.014 4.40137 13.9203 4.20918C13.789 3.95137 13.6437 3.75449 13.3672 3.48262C13.0578 3.16855 12.9125 3.06543 12.5469 2.8873C12.3031 2.76543 11.9469 2.63418 11.7594 2.59668C11.5719 2.55449 11.2203 2.52168 10.9625 2.52637C10.6859 2.52637 10.3672 2.56387 10.1562 2.61543C9.96404 2.6623 9.63123 2.78887 9.4156 2.89199ZM1.83592 2.00605C1.91092 2.00605 2.07029 2.05293 2.18279 2.10918C2.30467 2.1748 2.42185 2.28262 2.4781 2.38105C2.54373 2.50293 2.56248 2.61074 2.5531 2.80293C2.53904 3.00449 2.49685 3.1123 2.37498 3.29512C2.28592 3.42637 2.14529 3.67949 2.06092 3.85762C1.97654 4.03574 1.87342 4.33574 1.83592 4.51387C1.79842 4.69199 1.7656 5.02481 1.7656 5.25449C1.7656 5.47949 1.79842 5.81699 1.8406 6.00449C1.88279 6.1873 1.98592 6.49199 2.0656 6.67012C2.14998 6.84824 2.29529 7.11543 2.39373 7.25605C2.53435 7.46699 2.56717 7.55605 2.56717 7.74824C2.56717 7.9123 2.53435 8.02949 2.45935 8.14668C2.39373 8.24512 2.25779 8.35762 2.11717 8.42324C1.90154 8.53105 1.86404 8.53574 1.67185 8.47949C1.55467 8.44668 1.39998 8.36699 1.32967 8.29668C1.25467 8.22637 1.10467 8.02012 0.992166 7.84199C0.879666 7.66387 0.724979 7.36387 0.645291 7.18574C0.570291 7.00762 0.467166 6.69824 0.415604 6.50605C0.364041 6.31387 0.293729 5.95293 0.265604 5.70918C0.214041 5.3248 0.214041 5.18887 0.284354 4.70137C0.326541 4.39199 0.424978 3.95605 0.504666 3.72637C0.579666 3.50137 0.696854 3.20605 0.762479 3.0748C0.832791 2.93887 0.982791 2.68105 1.10467 2.50293C1.26404 2.25918 1.36717 2.15605 1.50779 2.09043C1.61092 2.04355 1.75623 2.00605 1.83592 2.00605ZM20.164 2.00605C20.239 2.00605 20.389 2.04355 20.4922 2.09043C20.6328 2.15605 20.7359 2.25918 20.8953 2.50293C21.0172 2.68105 21.1672 2.93887 21.2375 3.0748C21.3031 3.20605 21.4203 3.50137 21.4953 3.73105C21.5703 3.95605 21.6687 4.38262 21.7156 4.67793C21.7859 5.14199 21.7906 5.27793 21.739 5.6623C21.7062 5.90605 21.6359 6.27637 21.5844 6.48262C21.5328 6.68887 21.4297 7.00762 21.3547 7.18574C21.275 7.36387 21.1203 7.66387 21.0078 7.84199C20.8953 8.02012 20.7453 8.22637 20.6703 8.29668C20.6 8.36699 20.4453 8.44668 20.3281 8.47949C20.1359 8.53574 20.0984 8.53105 19.8828 8.42324C19.7422 8.35762 19.6062 8.24512 19.5406 8.14668C19.4656 8.02949 19.4328 7.9123 19.4328 7.74824C19.4328 7.55605 19.4656 7.46699 19.6062 7.25605C19.7047 7.11543 19.85 6.84824 19.9344 6.67012C20.014 6.49199 20.1172 6.1873 20.1594 6.00449C20.2015 5.81699 20.2344 5.47949 20.2344 5.25449C20.2344 5.02481 20.2015 4.69199 20.164 4.51387C20.1265 4.33574 20.0234 4.03574 19.939 3.85762C19.8547 3.67949 19.714 3.42637 19.625 3.29512C19.5031 3.1123 19.4609 3.00449 19.4469 2.80293C19.4375 2.61074 19.4562 2.50293 19.5219 2.38105C19.5781 2.28262 19.6953 2.1748 19.8172 2.11387C19.9297 2.05293 20.0844 2.00605 20.164 2.00605ZM4.47029 10.0217C4.58279 10.0217 4.74685 10.0592 4.8406 10.1061C4.93904 10.1482 5.05623 10.2514 5.11248 10.3264C5.20623 10.4576 5.21092 10.5467 5.23904 11.8967C5.26717 13.1529 5.28123 13.3732 5.37029 13.7248C5.42654 13.9451 5.54373 14.2686 5.6281 14.4514C5.71248 14.6342 5.87185 14.9154 5.98435 15.0842C6.09685 15.2529 6.35935 15.5576 6.5656 15.7639C6.77654 15.9701 7.08123 16.2373 7.24998 16.3592C7.41873 16.4764 7.7656 16.6779 8.02342 16.8092C8.28123 16.9357 8.69373 17.1092 8.93748 17.1842C9.18123 17.2639 9.58435 17.3623 9.8281 17.4045C10.1281 17.4607 10.5172 17.4842 11.0234 17.4842C11.5906 17.4842 11.8953 17.4607 12.2656 17.3857C12.5375 17.3342 12.9359 17.2264 13.1562 17.1561C13.3765 17.0811 13.714 16.9451 13.9062 16.8514C14.0984 16.7576 14.4265 16.5701 14.6328 16.4342C14.839 16.2982 15.1906 16.0076 15.4109 15.7873C15.6359 15.567 15.9172 15.2295 16.0437 15.0373C16.1656 14.8451 16.325 14.5545 16.4 14.3951C16.4703 14.2311 16.5781 13.9264 16.6297 13.7154C16.7187 13.3779 16.7328 13.1389 16.7609 11.8967C16.789 10.5467 16.7937 10.4576 16.8875 10.3264C16.9437 10.2514 17.0609 10.1482 17.1594 10.1061C17.2531 10.0592 17.4172 10.0217 17.5297 10.0217C17.6562 10.0217 17.7828 10.0545 17.8859 10.1248C17.975 10.1857 18.0922 10.3076 18.1437 10.3967C18.2375 10.5514 18.2422 10.6311 18.2422 11.9436C18.2375 13.092 18.2234 13.3967 18.1531 13.7482C18.1062 13.9779 18.0031 14.3482 17.9281 14.5686C17.8484 14.7889 17.7219 15.0936 17.6469 15.2482C17.5672 15.4029 17.375 15.7217 17.2156 15.9514C17.0609 16.1811 16.7187 16.5842 16.4609 16.842C16.1515 17.1561 15.8094 17.4373 15.4531 17.6717C15.1578 17.8686 14.7265 18.1217 14.4922 18.2295C14.2625 18.3373 13.8594 18.4967 13.6015 18.5857C13.3437 18.6701 12.9219 18.7826 12.664 18.8295C12.4062 18.8811 12.0969 18.9326 11.75 18.9748V20.9904L12.9828 21.0045C14.164 21.0139 14.2156 21.0186 14.389 21.1217C14.4875 21.1779 14.6047 21.3045 14.6562 21.4123C14.7078 21.5154 14.75 21.6654 14.75 21.7404C14.75 21.8154 14.7265 21.9373 14.6984 22.0123C14.6703 22.0826 14.6047 22.1904 14.5484 22.2467C14.4922 22.3076 14.3656 22.4014 14.2719 22.4482C14.1031 22.5326 13.9484 22.5373 11 22.5373C8.05154 22.5373 7.89685 22.5326 7.73279 22.4482C7.63435 22.4014 7.50779 22.3076 7.45154 22.2467C7.39529 22.1904 7.32967 22.0826 7.30154 22.0123C7.27342 21.9373 7.24998 21.8107 7.24998 21.7311C7.24998 21.6467 7.29685 21.492 7.35779 21.3936C7.41404 21.2904 7.53592 21.1639 7.62498 21.1123C7.77967 21.0186 7.87342 21.0139 10.25 20.9904V18.9748L10.0297 18.9467C9.9031 18.9326 9.58435 18.8764 9.31248 18.8248C9.0406 18.7732 8.60935 18.6561 8.35154 18.567C8.09373 18.4779 7.69529 18.3139 7.46092 18.2061C7.23123 18.0936 6.80935 17.8451 6.52342 17.6576C6.2281 17.4561 5.82498 17.1326 5.58123 16.8889C5.34685 16.6592 5.0281 16.2982 4.8781 16.092C4.72342 15.8857 4.5031 15.5248 4.38592 15.2951C4.26404 15.0654 4.11404 14.7045 4.04373 14.4982C3.9781 14.292 3.88904 13.9639 3.84685 13.7717C3.79529 13.5139 3.76717 13.0451 3.74842 12.0373C3.72967 10.6592 3.72967 10.6545 3.83748 10.4436C3.89842 10.3264 4.0156 10.1857 4.10467 10.1295C4.21248 10.0592 4.33904 10.0217 4.47029 10.0217ZM4.3906 2.99043C4.4281 2.99043 4.53592 3.00918 4.62498 3.03262C4.71404 3.05605 4.85935 3.15449 4.94373 3.24355C5.02342 3.3373 5.11248 3.48262 5.13592 3.56699C5.15935 3.64668 5.16404 3.79199 5.14529 3.88105C5.12654 3.97012 5.04685 4.15293 4.96717 4.27949C4.88748 4.41074 4.78435 4.64043 4.74217 4.79512C4.68123 4.99668 4.66717 5.17012 4.68592 5.40449C4.70467 5.67637 4.74685 5.80293 4.92967 6.15449C5.10779 6.4873 5.15467 6.61855 5.14998 6.7873C5.14529 6.90449 5.1031 7.06387 5.05623 7.13887C5.00935 7.21855 4.89685 7.33105 4.80779 7.3873C4.67654 7.48105 4.60154 7.49512 4.3906 7.48105C4.22185 7.47168 4.08123 7.42949 3.98279 7.35918C3.89842 7.30293 3.74373 7.11543 3.6406 6.94199C3.53748 6.76387 3.39685 6.45449 3.33123 6.24824C3.25623 6.01387 3.19998 5.71387 3.18592 5.45137C3.16717 5.14668 3.18123 4.91699 3.23748 4.63105C3.28435 4.41074 3.39217 4.07324 3.48592 3.88105C3.57498 3.68887 3.70623 3.4498 3.77654 3.34668C3.85623 3.23418 3.98279 3.13105 4.11404 3.07949C4.22654 3.03262 4.3531 2.99043 4.3906 2.99043ZM17.5859 2.99512C17.6375 2.99512 17.7687 3.03262 17.8812 3.08418C17.9937 3.13574 18.1437 3.2623 18.2234 3.37949C18.3078 3.4873 18.439 3.72637 18.5234 3.90449C18.6125 4.0873 18.7156 4.41074 18.7625 4.63105C18.8187 4.91699 18.8328 5.14668 18.814 5.45137C18.8 5.71387 18.7437 6.01387 18.6687 6.24824C18.6031 6.45449 18.4625 6.76387 18.3594 6.94199C18.2562 7.11543 18.1015 7.30293 18.0219 7.35918C17.9187 7.42949 17.7781 7.47168 17.6094 7.48105C17.3984 7.49512 17.3234 7.48105 17.1922 7.3873C17.1031 7.33105 16.9906 7.21855 16.9437 7.13887C16.8969 7.06387 16.8547 6.90449 16.85 6.7873C16.8469 6.64668 16.8781 6.51387 16.9437 6.38887C17 6.28574 17.1031 6.08418 17.1734 5.94355C17.2531 5.7748 17.3047 5.57793 17.3187 5.38105C17.3328 5.1748 17.314 4.98262 17.2578 4.79512C17.2156 4.64043 17.1172 4.42012 17.0422 4.30293C16.9719 4.18574 16.8875 4.03105 16.864 3.95137C16.8359 3.8623 16.8406 3.73105 16.8687 3.5998C16.8922 3.48262 16.9719 3.31855 17.0422 3.23418C17.1125 3.1498 17.2437 3.06074 17.3328 3.04199C17.4219 3.01855 17.5344 2.99512 17.5859 2.99512Z" fill="#579BC3"/>
</svg>
